# This file uses meters as units for non-parametric coordinates.

g default
v -331.729626 15.114137 56.790226
v -331.728924 15.114137 -104.450985
v 290.748829 -201.618289 -114.769107
v 232.675174 -201.618289 41.449847
v 232.675174 -99.717044 41.449847
v 229.192737 -86.449237 41.500542
v 219.535236 -76.195853 41.641148
v 205.944126 -71.302371 41.839028
v 263.860401 -71.639590 -114.535450
v 277.507465 -76.389442 -114.654056
v 287.235309 -86.594226 -114.738605
v 290.748829 -99.876315 -114.769107
v -114.927662 2.802010 50.783718
v -121.648220 5.853555 51.448307
v -101.033467 5.837811 -108.050136
v -94.319416 2.835883 -108.486553
v -93.319943 -19.239880 45.651488
v -100.750149 -15.586346 46.334298
v -79.787953 -15.619980 -111.488216
v -72.348500 -19.193283 -111.939159
v 83.443645 -33.965509 -113.170025
v 91.287014 -37.788985 -113.222736
v 52.162704 -37.774390 43.765826
v 44.406646 -33.772039 43.851273
v 105.254207 -52.732562 -113.292057
v 113.102405 -56.580859 -113.344768
v 72.679599 -56.480807 43.580311
v 64.920623 -52.451388 43.665776
vt 1.000000 0.198728
vt 1.000000 1.000000
vt 0.000000 1.000000
vt 0.958729 0.433089
vt 0.000000 0.199980
vt 0.983221 0.433104
vt 0.971130 0.433096
vt 0.475568 0.310010
vt 0.000000 0.000000
vt 0.017809 0.432513
vt 0.354007 0.631154
vt 0.016036 0.633043
vt 0.353990 0.432719
vt 0.394990 0.630926
vt 0.395814 0.432745
vt 0.676852 0.629351
vt 0.675829 0.432916
vt 0.719198 0.629114
vt 0.718800 0.432942
vt 0.834779 0.628469
vt 0.849145 0.433022
vt 0.962998 0.627752
vt 0.837470 0.433015
vt 0.846237 0.628405
vt 0.839727 0.628441
vt 0.832093 0.433011
vt 0.851187 0.628377
vt 0.843767 0.433018
vn 0.042072 0.999111 0.002655
vn 0.051623 0.998659 0.003957
vn 0.056669 0.998382 0.004646
vn 0.042072 0.999111 0.002655
vn 0.733159 0.673251 0.095977
vn 0.697900 0.710355 0.091282
vn 0.734113 0.672147 0.096422
vn 0.700837 0.707344 0.092150
vn 0.120096 0.992137 0.035217
vn 0.132547 0.990439 0.038230
vn 0.118843 0.992222 0.037042
vn 0.136936 0.989594 0.044185
vn 0.937003 0.026858 0.348288
vn 0.936925 0.029844 0.348254
vn 0.937328 0.000000 0.348447
vn 0.937328 0.000000 0.348447
vn 0.497637 0.847787 0.183344
vn 0.569706 0.794486 0.210303
vn 0.819065 0.486721 0.303702
vn 0.842410 0.438988 0.312465
vn 0.122102 0.992291 0.021198
vn 0.114697 0.993193 0.020320
vn 0.114378 0.993184 0.022437
vn 0.126073 0.991693 0.025523
vn 0.667943 0.725012 0.167958
vn 0.639551 0.751791 0.160573
vn 0.668545 0.724230 0.168936
vn 0.639300 0.751766 0.161691
s 1
g polySurface9 pPlane2
f 1/10/1 14/13/2 15/11/3 2/12/4
f 16/14/5 13/15/6 18/17/7 19/16/8
f 26/27/9 27/21/10 8/4/11 9/22/12
f 12/5/13 5/1/14 4/2/15 3/3/16
f 8/4/11 7/7/17 10/8/18 9/22/12
f 7/7/17 6/6/19 11/9/20 10/8/18
f 6/6/19 5/1/14 12/5/13 11/9/20
f 14/13/2 13/15/6 16/14/5 15/11/3
f 18/17/7 17/19/21 20/18/22 19/16/8
f 20/18/22 17/19/21 24/26/23 21/20/24
f 22/25/25 23/23/26 28/28/27 25/24/28
f 22/25/25 21/20/24 24/26/23 23/23/26
f 26/27/9 25/24/28 28/28/27 27/21/10
