# This file uses meters as units for non-parametric coordinates.

g default
v -357.410687 15.114137 56.790226
v -357.409985 15.114137 -104.451000
v 290.748829 -377.631564 -114.769107
v 232.675174 -377.631564 41.449845
v 232.675174 -99.717044 41.449845
v 229.192737 -86.449237 41.500542
v 219.535236 -76.195853 41.641150
v 205.944111 -71.302363 41.839028
v 263.860401 -71.639587 -114.535450
v 277.507465 -76.389442 -114.654056
v 287.235309 -86.594226 -114.738605
v 290.748829 -99.876315 -114.769107
v -114.927670 2.802010 50.783718
v -121.648220 5.853557 51.448307
v -101.033467 5.837811 -108.050144
v -94.319416 2.835883 -108.486568
v -93.319943 -19.239879 45.651490
v -100.750157 -15.586346 46.334298
v -79.787953 -15.619980 -111.488224
v -72.348500 -19.193282 -111.939167
v 83.443645 -33.965510 -113.170040
v 91.287014 -37.788985 -113.222736
v 52.162704 -37.774390 43.765822
v 44.406646 -33.772039 43.851271
v 105.254200 -52.732562 -113.292057
v 113.102405 -56.580859 -113.344776
v 72.679599 -56.480807 43.580311
v 64.920623 -52.451388 43.665776
vt 0.038883 0.997960
vt 0.039236 0.879754
vt 0.960026 0.871084
vt 0.958359 1.000000
vt 0.960134 0.864529
vt 0.039264 0.873147
vt 0.039425 0.846963
vt 0.960740 0.838073
vt 0.961926 0.696139
vt 0.039660 0.715182
vt 0.039828 0.630981
vt 0.962805 0.602631
vt 0.962966 0.559691
vt 0.039864 0.587941
vt 0.039864 0.028087
vt 0.962966 -0.000000
vt 0.039846 0.618918
vt 0.962887 0.590685
vt 0.039859 0.603381
vt 0.962945 0.575161
vt 0.039454 0.839370
vt 0.960854 0.830555
vt 0.039628 0.753157
vt 0.961763 0.734736
vt 0.961807 0.726746
vt 0.039637 0.745029
vt 0.039651 0.723340
vt 0.961882 0.704157
vn 0.037682 0.999287 0.002373
vn 0.046367 0.998918 0.003550
vn 0.050938 0.998693 0.004170
vn 0.037682 0.999287 0.002373
vn 0.733159 0.673251 0.095977
vn 0.697900 0.710354 0.091282
vn 0.734112 0.672147 0.096422
vn 0.700837 0.707345 0.092150
vn 0.120096 0.992137 0.035217
vn 0.132547 0.990439 0.038230
vn 0.118843 0.992222 0.037042
vn 0.136936 0.989594 0.044185
vn 0.937281 0.010578 0.348414
vn 0.937268 0.011853 0.348408
vn 0.937328 0.000000 0.348447
vn 0.937328 0.000000 0.348447
vn 0.497637 0.847787 0.183344
vn 0.569706 0.794486 0.210303
vn 0.819066 0.486720 0.303702
vn 0.842411 0.438988 0.312465
vn 0.122102 0.992291 0.021198
vn 0.114697 0.993193 0.020320
vn 0.114378 0.993184 0.022437
vn 0.126073 0.991693 0.025523
vn 0.667943 0.725012 0.167958
vn 0.639551 0.751792 0.160573
vn 0.668545 0.724230 0.168936
vn 0.639300 0.751766 0.161691
s 1
g polySurface9 pPlane2
f 1/1/1 14/2/2 15/3/3 2/4/4
f 16/5/5 13/6/6 18/7/7 19/8/8
f 26/9/9 27/10/10 8/11/11 9/12/12
f 12/13/13 5/14/14 4/15/15 3/16/16
f 8/11/11 7/17/17 10/18/18 9/12/12
f 7/17/17 6/19/19 11/20/20 10/18/18
f 6/19/19 5/14/14 12/13/13 11/20/20
f 14/2/2 13/6/6 16/5/5 15/3/3
f 18/7/7 17/21/21 20/22/22 19/8/8
f 20/22/22 17/21/21 24/23/23 21/24/24
f 22/25/25 23/26/26 28/27/27 25/28/28
f 22/25/25 21/24/24 24/23/23 23/26/26
f 26/9/9 25/28/28 28/27/27 27/10/10
