# This file uses meters as units for non-parametric coordinates.

g default
v -0.000020 98.031953 22.653194
v -0.000020 87.627137 43.275325
v -0.000020 71.420045 60.319515
v -0.000020 50.720094 72.383724
v -0.000020 24.084229 78.003200
v -0.000020 24.084229 -78.003239
v -0.000020 50.720094 -72.383671
v -0.000020 71.420014 -60.319554
v -0.000020 87.627137 -43.275273
v -0.000020 98.031922 -22.653264
v -0.000020 101.617127 0.000026
v -0.000020 1.829041 0.000026
v -0.000020 1.829041 77.903591
v -0.000020 1.829041 -77.903538
v -0.000020 38.722596 -76.096654
v -0.000020 61.613343 -67.063939
v -0.000020 80.157868 -52.332463
v -0.000020 93.628114 -33.320561
v -0.000020 100.709718 -11.458501
v -0.000020 100.709748 11.458492
v -0.000020 93.628114 33.320552
v -0.000020 80.157899 52.332454
v -0.000020 61.613404 67.063991
v -0.000020 38.722596 76.096645
vt 0.435620 0.810342
vt 0.405304 0.797569
vt 0.500000 0.531311
vt 0.377013 0.780163
vt 0.351273 0.758499
vt 0.328574 0.733156
vt 0.309406 0.704712
vt 0.294288 0.673117
vt 0.283736 0.638318
vt 0.278318 0.595861
vt 0.278601 0.531311
vt 0.721682 0.595861
vt 0.721399 0.531311
vt 0.716264 0.638318
vt 0.705712 0.673117
vt 0.690593 0.704712
vt 0.671426 0.733155
vt 0.648727 0.758499
vt 0.622987 0.780163
vt 0.594696 0.797569
vt 0.564380 0.810342
vt 0.532565 0.818109
vt 0.500000 0.820741
vt 0.467435 0.818109
vn 1.000000 0.000000 0.000000
vn 1.000000 0.000000 0.000000
vn 1.000000 -0.000000 0.000000
vn 1.000000 0.000000 0.000000
vn 1.000000 -0.000001 0.000000
vn 1.000000 -0.000001 0.000000
vn 1.000000 -0.000001 0.000000
vn 1.000000 -0.000001 0.000000
vn 1.000000 -0.000001 0.000000
vn 1.000000 -0.000001 0.000000
vn 1.000000 0.000000 0.000000
vn 1.000000 -0.000001 0.000000
vn 1.000000 -0.000001 0.000000
vn 1.000000 0.000000 0.000000
vn 1.000000 0.000000 0.000000
vn 1.000000 0.000001 0.000000
vn 1.000000 0.000000 0.000000
vn 1.000000 -0.000000 0.000000
vn 1.000000 -0.000000 0.000000
vn 1.000000 -0.000000 0.000000
vn 1.000000 0.000000 0.000000
vn 1.000000 0.000001 0.000000
vn 1.000000 0.000000 0.000000
vn 1.000000 0.000000 0.000000
s 1
g polySurface5 pCylinder2
f 1/1/1 21/2/2 12/3/3
f 2/4/4 12/3/3 21/2/2
f 2/4/4 22/5/5 12/3/3
f 3/6/6 12/3/3 22/5/5
f 3/6/6 23/7/7 12/3/3
f 4/8/8 12/3/3 23/7/7
f 4/8/8 24/9/9 12/3/3
f 5/10/10 12/3/3 24/9/9
f 5/10/10 13/11/11 12/3/3
f 6/12/12 12/3/3 14/13/13
f 6/12/12 15/14/14 12/3/3
f 7/15/15 12/3/3 15/14/14
f 7/15/15 16/16/16 12/3/3
f 8/17/17 12/3/3 16/16/16
f 8/17/17 17/18/18 12/3/3
f 9/19/19 12/3/3 17/18/18
f 9/19/19 18/20/20 12/3/3
f 10/21/21 12/3/3 18/20/20
f 10/21/21 19/22/22 12/3/3
f 11/23/23 12/3/3 19/22/22
f 11/23/23 20/24/24 12/3/3
f 1/1/1 12/3/3 20/24/24
