# This file uses meters as units for non-parametric coordinates.

g default
v 3.088067 45.599732 9.801082
v 3.316337 34.086671 29.473384
v 3.088067 18.987794 47.467403
v 2.425262 1.506471 62.290035
v -2.749606 0.000001 -66.559819
v -1.800982 22.029298 -64.888371
v -0.749225 37.621949 -57.201359
v 0.386701 48.312867 -44.884679
v 1.494283 53.339234 -28.872258
v 2.443921 52.312867 -10.171361
v -0.000020 0.000001 0.000026
v -2.273595 12.326661 -66.634465
v -1.291253 30.447328 -61.689976
v -0.185141 43.620423 -51.562016
v 0.951697 51.570252 -37.281377
v 1.998434 53.568849 -19.775700
v 2.812541 49.615479 -0.246892
v 3.258484 40.368470 19.759273
v 3.258484 26.898194 38.771236
v 2.805087 10.555543 55.389705
vt 0.648603 0.892034
vt 0.637506 0.913813
vt 0.527031 0.831815
vt 0.626409 0.935591
vt 0.609125 0.952875
vt 0.591841 0.970159
vt 0.570063 0.981256
vt 0.548284 0.992353
vt 0.500000 0.687500
vt 0.524142 0.691324
vt 0.548284 0.695147
vt 0.570063 0.706244
vt 0.591841 0.717341
vt 0.609125 0.734625
vt 0.626409 0.751908
vt 0.637506 0.773687
vt 0.648603 0.795466
vt 0.652426 0.819608
vt 0.656250 0.843750
vt 0.652426 0.867892
vn 0.997178 -0.057039 -0.048816
vn 0.997263 -0.058133 -0.045692
vn 0.997447 -0.055479 -0.044961
vn 0.997277 -0.060244 -0.042540
vn 0.997200 -0.063196 -0.039967
vn 0.997021 -0.067103 -0.038019
vn 0.996877 -0.069654 -0.037212
vn 0.996845 -0.070155 -0.037116
vn 0.998395 -0.038809 -0.041244
vn 0.998343 -0.039923 -0.041449
vn 0.998198 -0.042665 -0.042190
vn 0.998000 -0.045854 -0.043522
vn 0.997779 -0.048897 -0.045231
vn 0.997563 -0.051464 -0.047114
vn 0.997343 -0.053708 -0.049215
vn 0.997141 -0.055486 -0.051299
vn 0.996990 -0.056605 -0.052970
vn 0.996923 -0.057035 -0.053770
vn 0.996958 -0.056927 -0.053239
vn 0.997058 -0.056776 -0.051504
s 1
g polySurface11 pCylinder2
f 1/1/1 18/2/2 11/3/3
f 2/4/4 11/3/3 18/2/2
f 2/4/4 19/5/5 11/3/3
f 3/6/6 11/3/3 19/5/5
f 3/6/6 20/7/7 11/3/3
f 4/8/8 11/3/3 20/7/7
f 5/9/9 12/10/10 11/3/3
f 6/11/11 11/3/3 12/10/10
f 6/11/11 13/12/12 11/3/3
f 7/13/13 11/3/3 13/12/12
f 7/13/13 14/14/14 11/3/3
f 8/15/15 11/3/3 14/14/14
f 8/15/15 15/16/16 11/3/3
f 9/17/17 11/3/3 15/16/16
f 9/17/17 16/18/18 11/3/3
f 10/19/19 11/3/3 16/18/18
f 10/19/19 17/20/20 11/3/3
f 1/1/1 11/3/3 17/20/20
