# This file uses meters as units for non-parametric coordinates.

g default
v 0.000000 270.930664 -0.806874
v 0.000000 266.108398 -14.731238
v 0.000000 334.728516 0.498857
v 0.000000 336.091797 10.934134
v 0.000000 198.911133 19.091761
v 0.000000 201.824219 2.826920
v 0.000000 127.690430 7.532112
v 0.000000 129.225586 -10.223227
v 0.000000 1.217285 17.918640
v 0.000000 0.000000 -20.797562
v 0.000000 149.784180 12.578711
v 0.000000 142.764160 -7.108035
v 0.000000 146.646484 -31.086176
v 0.000000 153.757324 -27.530756
v 0.000000 156.957520 -50.640995
v 0.000000 161.224121 -52.063168
v 0.000000 210.263672 1.590130
v 0.000000 209.628906 15.086359
v 0.000000 241.576172 58.201401
v 0.000000 376.611328 -10.205050
v 0.000000 378.185547 -0.894592
v 0.000000 323.078125 -0.891263
v 0.000000 325.804688 8.002314
v 0.000000 344.242188 36.135647
v 0.000000 340.494141 35.454166
v 0.000000 360.255859 53.172668
v 0.000000 274.722656 -12.276547
v 0.000000 278.773438 -0.479796
v 0.000000 299.521484 -57.425743
v 0.000000 305.695313 -60.493240
v 0.000000 285.024414 -40.317451
v 0.000000 303.863281 -55.327511
v 0.000000 296.445313 -85.448196
v 0.000000 302.048828 -84.621498
v 0.000000 334.136719 -61.550545
v 0.000000 314.761719 -105.699661
v 0.000000 446.304688 -4.270944
v 0.000000 444.683594 1.134962
vt 0.443256 0.545575
vt 0.479337 0.533082
vt 0.472976 0.555401
vt 0.442409 0.565897
vt 0.433841 0.366510
vt 0.437045 0.388378
vt 0.396667 0.386732
vt 0.386289 0.358963
vt 0.408572 0.231666
vt 0.459584 0.213476
vt 0.495055 0.000000
vt 0.467656 0.178396
vt 0.421649 0.174418
vt 0.394736 0.003154
vt 0.512502 0.241962
vt 0.521715 0.223536
vt 0.572385 0.250253
vt 0.576070 0.261308
vt 0.284950 0.469514
vt 0.443484 0.823493
vt 0.412834 0.714418
vt 0.439873 0.710886
vt 0.467609 0.819412
vt 0.420430 0.687765
vt 0.443475 0.680699
vt 0.349298 0.725824
vt 0.347533 0.735536
vt 0.303387 0.777033
vt 0.545635 0.582098
vt 0.584528 0.630907
vt 0.589965 0.619659
vt 0.597913 0.635656
vt 0.662576 0.611688
vt 0.660433 0.626208
vt 0.600653 0.709354
vt 0.715050 0.659149
vt 0.438225 0.995798
vt 0.452232 1.000000
vn 1.000000 0.000000 0.000000
vn 1.000000 0.000000 0.000000
vn 1.000000 0.000000 0.000000
vn 1.000000 0.000000 0.000000
vn 1.000000 -0.000000 0.000000
vn 1.000000 -0.000000 0.000000
vn 1.000000 -0.000000 0.000000
vn 1.000000 -0.000000 0.000000
vn 1.000000 0.000000 0.000000
vn 1.000000 0.000000 0.000000
vn 1.000000 0.000000 0.000000
vn 1.000000 0.000000 0.000000
vn 1.000000 0.000000 0.000000
vn 1.000000 0.000000 0.000000
vn 1.000000 0.000000 0.000000
vn 1.000000 0.000000 0.000000
vn 1.000000 0.000000 0.000000
vn 1.000000 0.000000 0.000000
vn 1.000000 0.000000 0.000000
vn 1.000000 0.000000 0.000000
vn 1.000000 0.000000 0.000000
vn 1.000000 0.000000 0.000000
vn 1.000000 0.000000 0.000000
vn 1.000000 0.000000 0.000000
vn 1.000000 0.000000 0.000000
vn 1.000000 0.000000 0.000000
vn 1.000000 0.000000 0.000000
vn 1.000000 0.000000 0.000000
vn 1.000000 -0.000000 0.000000
vn 1.000000 -0.000000 0.000000
vn 1.000000 -0.000000 0.000000
vn 1.000000 -0.000000 0.000000
vn 1.000000 0.000000 0.000000
vn 1.000000 0.000000 0.000000
vn 1.000000 0.000000 0.000000
vn 1.000000 -0.000000 0.000000
vn 1.000000 -0.000000 0.000000
vn 1.000000 -0.000000 0.000000
vn 1.000000 -0.000000 0.000000
vn 1.000000 0.000000 0.000000
vn 1.000000 0.000000 0.000000
vn 1.000000 0.000000 0.000000
vn 1.000000 0.000000 0.000000
vn 1.000000 0.000000 0.000000
vn 1.000000 0.000000 0.000000
vn 1.000000 0.000000 0.000000
vn 1.000000 0.000000 0.000000
vn 1.000000 0.000000 0.000000
vn 1.000000 0.000000 0.000000
vn 1.000000 0.000000 0.000000
vn 1.000000 0.000000 0.000000
vn 1.000000 0.000000 0.000000
vn 1.000000 0.000000 0.000000
vn 1.000000 0.000000 0.000000
vn 1.000000 -0.000000 0.000000
vn 1.000000 -0.000000 0.000000
vn 1.000000 -0.000000 0.000000
vn 1.000000 -0.000000 0.000000
vn 1.000000 -0.000000 0.000000
vn 1.000000 -0.000000 0.000000
vn 1.000000 -0.000000 0.000000
vn 1.000000 -0.000000 0.000000
vn 1.000000 -0.000000 0.000000
vn 1.000000 -0.000000 0.000000
vn 1.000000 -0.000000 0.000000
vn 1.000000 -0.000000 0.000000
vn 1.000000 -0.000000 0.000000
vn 1.000000 -0.000000 0.000000
vn 1.000000 -0.000000 0.000000
vn 1.000000 -0.000000 0.000000
vn 1.000000 -0.000000 0.000000
vn 1.000000 -0.000000 0.000000
vn 1.000000 0.000000 0.000000
vn 1.000000 0.000000 0.000000
vn 1.000000 0.000000 0.000000
vn 1.000000 0.000000 0.000000
s off
g Tree3:polySurface1
f 1/1/1 2/2/2 27/3/3 28/4/4
f 6/5/5 17/6/6 18/7/7 5/8/8
f 5/8/9 11/9/10 12/10/11 6/5/12
f 10/11/13 8/12/14 7/13/15 9/14/16
f 12/10/17 11/9/18 7/13/19 8/12/20
f 14/15/21 12/10/22 8/12/23 13/16/24
f 13/16/25 15/17/26 16/18/27 14/15/28
f 18/7/29 17/6/30 2/2/31 1/1/32
f 18/7/33 19/19/34 5/8/35
f 21/20/36 4/21/37 3/22/38 20/23/39
f 23/24/40 22/25/41 3/22/42 4/21/43
f 25/26/44 23/24/45 4/21/46 24/27/47
f 26/28/48 25/26/49 24/27/50
f 28/4/51 27/3/52 22/25/53 23/24/54
f 2/2/55 31/29/56 32/30/57 27/3/58
f 32/30/59 31/29/60 29/31/61 30/32/62
f 29/31/63 33/33/64 34/34/65 30/32/66
f 30/32/67 35/35/68 32/30/69
f 33/33/70 36/36/71 34/34/72
f 38/37/73 21/20/74 20/23/75 37/38/76
