# This file uses meters as units for non-parametric coordinates.

g default
v 1.153932 -0.123749 31.149000
v 1.153932 -0.274170 -0.000000
v 1.153932 711.609497 9.854619
v 1.153932 728.732300 5.011095
v 1.153932 381.548950 19.025553
v 1.153932 400.617126 3.560328
v 1.153932 361.515686 19.661894
v 1.153933 375.563385 3.337821
v 1.153932 554.716919 -36.632999
v 1.153932 556.897949 -34.564468
v 1.153933 238.117828 23.581509
v 1.153932 283.917999 22.126715
v 1.153932 344.806213 57.347172
vt 0.000000 0.000000
vt 1.000000 0.000000
vt 0.000000 1.000000
vt 1.000000 1.000000
vt 0.000000 0.676741
vt 1.000000 0.710487
vt 0.000000 0.641220
vt 0.957799 0.614255
vt 0.000000 0.000000
vt 1.097232 -0.008555
vt 1.000000 1.000000
vt 0.000000 1.000000
vt 0.000000 0.422424
vt 0.000000 0.503632
vt 0.000000 0.000000
vt 1.000000 0.000000
vt 3.082573 -0.629185
vt 0.000000 0.500000
vt 1.000000 0.000000
vt 1.000000 1.000000
vn 1.000000 0.000000 0.000000
vn 1.000000 0.000000 0.000000
vn 1.000000 -0.000000 0.000000
vn 1.000000 -0.000000 0.000000
vn 1.000000 0.000000 0.000000
vn 1.000000 0.000000 0.000000
vn 1.000000 0.000000 0.000000
vn 1.000000 0.000000 0.000000
vn 1.000000 0.000000 0.000000
vn 1.000000 -0.000000 -0.000000
vn 1.000000 -0.000000 -0.000000
vn 1.000000 -0.000000 -0.000000
vn 1.000000 0.000000 -0.000000
s 1
g pPlane3
f 5/5/1 6/6/2 4/4/3 3/3/4
f 7/7/5 8/8/6 6/6/2 5/5/1
f 12/14/7 8/8/6 7/7/5
f 6/9/2 8/10/6 9/11/8 10/12/9
f 1/1/10 2/2/11 8/8/6 11/13/12
f 11/15/12 12/16/7 13/17/13
f 8/18/6 12/19/7 11/20/12
