# This file uses meters as units for non-parametric coordinates.

g default
v 0.000000 454.832031 58.552734
v 0.000000 451.687500 72.177734
v 0.000000 275.271484 20.316406
v 0.000000 279.201172 -3.831055
v 0.000000 192.230469 45.346680
v 0.000000 193.175781 19.837891
v 0.000000 -0.488319 49.860352
v 0.000000 0.456387 -0.000977
v 0.000000 311.351563 29.798828
v 0.000000 296.958984 7.235352
v 0.000000 374.386719 -30.247070
v 0.000000 368.636719 -18.209961
v 0.000000 444.351563 -12.464844
v -0.000000 534.218750 38.731445
v 0.000000 535.164063 50.070313
v 0.000000 207.185547 15.796875
v 0.000000 206.914063 40.765625
v -0.000000 245.134766 84.080078
v 0.000000 119.492188 12.252930
v 0.000000 118.545898 46.432617
v -0.000000 97.747070 10.792969
v 0.000000 104.360352 45.806641
v -0.000000 141.214844 -30.230469
v -0.000000 143.107422 -18.894531
v -0.000000 176.171875 -49.390625
v -0.000000 178.060547 -46.024902
v -0.000000 376.093750 65.335938
v -0.000000 370.019531 47.010742
vt 0.421554 0.850039
vt 0.396118 0.844170
vt 0.475232 0.582172
vt 0.517356 0.555303
vt 0.493827 0.361552
vt 0.501372 0.387707
vt 0.454759 0.387201
vt 0.446208 0.359788
vt 0.530864 0.001764
vt 0.510714 0.183396
vt 0.445346 0.195742
vt 0.437783 0.000000
vt 0.492932 0.514815
vt 0.538017 0.522153
vt 0.564860 0.689120
vt 0.587332 0.699852
vt 0.554134 0.830473
vt 0.458554 0.998236
vt 0.437390 1.000000
vt 0.373898 0.458554
vt 0.444178 0.222228
vt 0.507988 0.223991
vt 0.566138 0.268078
vt 0.587301 0.264550
vt 0.623071 0.329806
vt 0.616788 0.333333
vt 0.437710 0.706433
vt 0.471919 0.695091
vn 1.000000 -0.000000 0.000000
vn 1.000000 -0.000000 0.000000
vn 1.000000 -0.000000 0.000000
vn 1.000000 0.000000 -0.000000
vn 1.000000 0.000000 0.000000
vn 1.000000 0.000000 0.000000
vn 1.000000 0.000000 0.000000
vn 1.000000 0.000000 0.000000
vn 1.000000 0.000000 -0.000000
vn 1.000000 0.000000 -0.000000
vn 1.000000 0.000000 -0.000000
vn 1.000000 0.000000 -0.000000
vn 1.000000 0.000000 -0.000000
vn 1.000000 0.000000 -0.000000
vn 1.000000 0.000000 0.000000
vn 1.000000 0.000000 0.000000
vn 1.000000 0.000000 0.000000
vn 1.000000 0.000000 0.000000
vn 1.000000 0.000000 0.000000
vn 1.000000 0.000000 0.000000
vn 1.000000 0.000000 0.000000
vn 1.000000 0.000000 0.000000
vn 1.000000 0.000000 0.000000
vn 1.000000 -0.000000 -0.000000
vn 1.000000 -0.000000 -0.000000
vn 1.000000 -0.000000 -0.000000
vn 1.000000 -0.000000 -0.000000
vn 1.000000 0.000000 0.000000
vn 1.000000 0.000000 0.000000
vn 1.000000 0.000000 0.000000
vn 1.000000 0.000000 0.000000
vn 1.000000 0.000000 0.000000
vn 1.000000 0.000000 0.000000
vn 1.000000 0.000000 0.000000
vn 1.000000 -0.000000 -0.000000
vn 1.000000 -0.000000 -0.000000
vn 1.000000 0.000000 0.000000
vn 1.000000 0.000000 0.000000
vn 1.000000 0.000000 -0.000000
vn 1.000000 0.000000 -0.000000
vn 1.000000 -0.000000 -0.000000
vn 1.000000 -0.000000 -0.000000
vn 1.000000 -0.000000 -0.000000
vn 1.000000 -0.000000 -0.000000
vn 1.000000 -0.000000 -0.000000
vn 1.000000 -0.000000 -0.000000
vn 1.000000 0.000000 0.000000
vn 1.000000 0.000000 0.000000
vn 1.000000 0.000000 0.000000
vn 1.000000 0.000000 0.000000
vn 1.000000 0.000000 -0.000000
vn 1.000000 -0.000000 0.000000
vn 1.000000 0.000000 -0.000000
vn 1.000000 0.000000 -0.000000
s off
g polySurface3
f 1/1/1 2/2/2 27/27/3 28/28/4
f 6/5/5 16/6/6 17/7/7 5/8/8
f 8/9/9 21/10/10 22/11/11 7/12/12
f 10/4/13 9/3/14 3/13/15 4/14/16
f 12/15/17 10/4/18 4/14/19 11/16/20
f 13/17/21 12/15/22 11/16/23
f 1/1/24 14/18/25 15/19/26 2/2/27
f 17/7/28 16/6/29 4/14/30 3/13/31
f 17/7/32 18/20/33 5/8/34
f 20/21/35 19/22/36 6/5/37 5/8/38
f 22/11/39 21/10/40 19/22/41 20/21/42
f 24/23/43 19/22/44 21/10/45 23/24/46
f 23/24/47 25/25/48 26/26/49 24/23/50
f 28/28/51 27/27/52 9/3/53 10/4/54
