# This file uses meters as units for non-parametric coordinates.

g default
v 1.153932 -0.123749 31.149000
v 1.153932 -0.274170 -0.000000
v 1.153932 711.609497 9.854619
v 1.153932 728.732300 5.011095
v 1.153932 381.548950 19.025553
v 1.153932 400.617126 3.560327
v 1.153932 361.515686 19.661894
v 1.153933 375.563385 3.337821
v 1.153932 554.716919 -36.632999
v 1.153932 556.897949 -34.564468
v 1.153933 238.117844 23.581509
v 1.153932 283.917999 22.126715
v 1.153932 344.806213 57.347172
vt 0.488113 0.523720
vt 0.509320 0.549913
vt 0.507331 1.000000
vt 0.500689 0.976501
vt 0.487240 0.496238
vt 0.509625 0.515546
vt 0.483860 0.389788
vt 0.564437 0.761392
vt 0.561600 0.764379
vt 0.471488 0.000134
vt 0.514203 0.000000
vt 0.481866 0.326958
vt 0.435563 0.473229
vn 1.000000 0.000000 0.000000
vn 1.000000 0.000000 0.000000
vn 1.000000 -0.000000 0.000000
vn 1.000000 -0.000000 0.000000
vn 1.000000 0.000000 0.000000
vn 1.000000 0.000000 0.000000
vn 1.000000 0.000000 0.000000
vn 1.000000 0.000000 0.000000
vn 1.000000 0.000000 0.000000
vn 1.000000 -0.000000 -0.000000
vn 1.000000 -0.000000 -0.000000
vn 1.000000 -0.000000 -0.000000
vn 1.000000 0.000000 -0.000000
s 1
g pPlane3
f 5/1/1 6/2/2 4/3/3 3/4/4
f 7/5/5 8/6/6 6/2/2 5/1/1
f 12/7/7 8/6/6 7/5/5
f 6/2/2 8/6/6 9/8/8 10/9/9
f 1/10/10 2/11/11 8/6/6 11/12/12
f 11/12/12 12/7/7 13/13/13
f 8/6/6 12/7/7 11/12/12
