# This file uses meters as units for non-parametric coordinates.

mtllib TreeLeaves.mtl
g default
v -0.000015 -192.301575 -45.281967
v -0.000015 -171.503235 -86.503685
v -0.000015 -139.106628 -120.573715
v -0.000015 -97.729172 -144.688934
v -0.000015 -44.486252 -155.921906
v -0.000015 47.690994 -147.199295
v -0.000015 47.690979 147.199249
v -0.000015 -44.486237 155.921844
v -0.000015 -97.729156 144.688873
v -0.000015 -139.106567 120.573662
v -0.000015 -171.503174 86.503647
v -0.000015 -192.301514 45.281948
v -0.000015 -199.468018 -0.000003
v -0.000015 257.858368 -81.458473
v -0.000015 241.197067 -91.163788
v 0.000015 0.000000 -0.000008
v -0.000015 302.795410 7.465828
v -0.000015 302.795410 -7.465835
v -0.000015 241.197006 91.163788
v -0.000015 257.858307 81.458473
v -0.000015 -6.875015 -155.722610
v -0.000015 127.816223 -126.038193
v -0.000015 127.816193 126.038170
v -0.000015 -6.875015 155.722565
v -0.000015 -73.747116 152.110840
v -0.000015 -119.503845 134.055176
v -0.000015 -156.572754 104.608185
v -0.000015 -183.498627 66.604935
v -0.000015 -197.654205 22.904572
v -0.000015 -197.654236 -22.904583
v -0.000015 231.231079 95.003540
v -0.000015 231.231140 -95.003540
v -0.000015 250.074707 -86.753860
v -0.000015 264.542358 -74.962357
v -0.000015 300.799805 14.690693
v -0.000015 303.460632 -0.000004
v -0.000015 300.799805 -14.690699
v -0.000015 250.074646 86.753860
v -0.000015 264.542297 74.962357
v -0.000015 -183.498688 -66.604965
v -0.000015 -156.572815 -104.608231
v -0.000015 -119.503906 -134.055237
v -0.000015 -73.747131 -152.110901
vt 0.648603 0.892034
vt 0.626409 0.935591
vt 0.591841 0.970159
vt 0.548284 0.992353
vt 0.500000 1.000000
vt 0.451716 0.992353
vt 0.451716 0.695147
vt 0.500000 0.687500
vt 0.548284 0.695147
vt 0.591841 0.717341
vt 0.626409 0.751908
vt 0.648603 0.795466
vt 0.656250 0.843750
vt 0.373224 0.924631
vt 0.379594 0.934210
vt 0.441940 0.891077
vt 0.527031 0.831815
vt 0.351209 0.836097
vt 0.351209 0.851403
vt 0.379594 0.753290
vt 0.373224 0.762869
vt 0.376409 0.929420
vt 0.370101 0.919934
vt 0.351209 0.828445
vt 0.351209 0.843750
vt 0.351209 0.859055
vt 0.376409 0.758080
vt 0.370101 0.767566
vt 0.637506 0.913813
vt 0.609125 0.952875
vt 0.570063 0.981256
vt 0.524142 0.996176
vt 0.475858 0.996176
vt 0.419349 0.968837
vt 0.419349 0.718663
vt 0.475858 0.691324
vt 0.524142 0.691324
vt 0.570063 0.706244
vt 0.609125 0.734625
vt 0.637506 0.773687
vt 0.652426 0.819608
vt 0.652426 0.867892
vt 0.383288 0.747735
vt 0.383288 0.939765
vn 1.000000 0.000000 -0.000000
vn 1.000000 0.000000 -0.000000
vn 1.000000 0.000000 -0.000000
vn 1.000000 0.000000 -0.000000
vn 1.000000 0.000000 -0.000000
vn 1.000000 0.000000 -0.000000
vn 1.000000 0.000000 0.000000
vn 1.000000 0.000000 0.000000
vn 1.000000 0.000000 0.000000
vn 1.000000 0.000000 -0.000000
vn 1.000000 0.000000 -0.000000
vn 1.000000 0.000000 0.000000
vn 1.000000 0.000000 0.000000
vn 1.000000 0.000000 0.000000
vn 1.000000 -0.000000 -0.000000
vn 1.000000 -0.000000 -0.000000
vn 1.000000 -0.000000 -0.000000
vn 1.000000 -0.000000 -0.000000
vn 1.000000 -0.000000 -0.000000
vn 1.000000 -0.000000 -0.000000
vn 1.000000 -0.000000 -0.000000
vn 1.000000 -0.000000 -0.000000
vn 1.000000 -0.000000 -0.000000
vn 1.000000 0.000000 -0.000000
vn 1.000000 0.000000 -0.000000
vn 1.000000 0.000000 -0.000000
vn 1.000000 0.000000 0.000000
vn 1.000000 0.000000 0.000000
vn 1.000000 0.000000 0.000000
vn 1.000000 -0.000000 0.000000
vn 1.000000 -0.000000 0.000000
vn 1.000000 -0.000000 0.000000
vn 1.000000 -0.000000 0.000000
vn 1.000000 -0.000000 0.000000
vn 1.000000 -0.000000 0.000000
vn 1.000000 -0.000000 0.000000
vn 1.000000 -0.000000 0.000000
vn 1.000000 -0.000000 0.000000
vn 1.000000 -0.000000 0.000000
vn 1.000000 -0.000000 0.000000
vn 1.000000 -0.000000 -0.000000
vn 1.000000 0.000000 0.000000
vn 1.000000 0.000000 -0.000000
s 1
g pCylinder1
usemtl initialShadingGroup
f 15/15/1 33/22/2 16/16/3
f 14/14/4 16/16/3 33/22/2
f 14/14/4 34/23/5 16/16/3
f 16/16/3 34/23/5 37/26/6
f 17/18/7 35/24/8 16/17/3
f 16/17/3 35/24/8 39/28/9
f 18/19/10 36/25/11 16/17/3
f 17/18/7 16/17/3 36/25/11
f 18/19/10 16/16/3 37/26/6
f 20/21/12 38/27/13 16/17/3
f 19/20/14 16/17/3 38/27/13
f 20/21/12 16/17/3 39/28/9
f 1/1/15 40/29/16 16/17/3
f 2/2/17 16/17/3 40/29/16
f 2/2/17 41/30/18 16/17/3
f 3/3/19 16/17/3 41/30/18
f 3/3/19 42/31/20 16/17/3
f 4/4/21 16/17/3 42/31/20
f 4/4/21 43/32/22 16/17/3
f 5/5/23 16/17/3 43/32/22
f 5/5/23 21/33/24 16/17/3
f 6/6/25 16/17/3 21/33/24
f 16/17/3 6/6/25 22/34/26
f 16/17/3 23/35/27 7/7/28
f 7/7/28 24/36/29 16/17/3
f 8/8/30 16/17/3 24/36/29
f 8/8/30 25/37/31 16/17/3
f 9/9/32 16/17/3 25/37/31
f 9/9/32 26/38/33 16/17/3
f 10/10/34 16/17/3 26/38/33
f 10/10/34 27/39/35 16/17/3
f 11/11/36 16/17/3 27/39/35
f 11/11/36 28/40/37 16/17/3
f 12/12/38 16/17/3 28/40/37
f 12/12/38 29/41/39 16/17/3
f 13/13/40 16/17/3 29/41/39
f 13/13/40 30/42/41 16/17/3
f 1/1/15 16/17/3 30/42/41
f 19/20/14 31/43/42 16/17/3
f 16/17/3 31/43/42 23/35/27
f 22/34/26 32/44/43 16/17/3
f 15/15/1 16/16/3 32/44/43
