# This file uses meters as units for non-parametric coordinates.

g default
v -9.031296 -192.301575 -45.281960
v -9.031296 -171.503235 -86.503677
v -9.031296 -139.106628 -120.573708
v -9.031296 -97.729156 -144.688934
v -9.031296 -44.486237 -155.921906
v -9.031296 47.691010 -147.199295
v -9.031296 47.690979 147.199249
v -9.031296 -44.486237 155.921844
v -9.031296 -97.729156 144.688873
v -9.031296 -139.106567 120.573662
v -9.031296 -171.503174 86.503654
v -9.031296 -192.301514 45.281956
v -9.031296 -199.468018 0.000003
v -9.031296 257.858368 -81.458466
v -9.031296 241.197052 -91.163780
v -9.031273 0.000000 -0.000002
v -9.031296 302.795380 7.465833
v -9.031296 302.795380 -7.465830
v -9.031296 241.196991 91.163795
v -9.031296 257.858307 81.458481
v -9.031296 -6.875031 -155.722610
v -9.031296 127.816254 -126.038185
v -9.031296 127.816193 126.038185
v -9.031296 -6.875031 155.722565
v -9.031296 -73.747101 152.110840
v -9.031296 -119.503845 134.055176
v -9.031296 -156.572754 104.608192
v -9.031296 -183.498627 66.604942
v -9.031296 -197.654205 22.904577
v -9.031296 -197.654236 -22.904577
v -9.031296 231.231049 95.003548
v -9.031296 231.231171 -95.003532
v -9.031296 250.074677 -86.753853
v -9.031296 264.542328 -74.962349
v -9.031296 300.799774 14.690699
v -9.031296 303.460663 0.000002
v -9.031296 300.799774 -14.690693
v -9.031296 250.074677 86.753868
v -9.031296 264.542328 74.962364
v -9.031296 -183.498688 -66.604958
v -9.031296 -156.572815 -104.608223
v -9.031296 -119.503906 -134.055237
v -9.031296 -73.747131 -152.110901
vt 0.557515 0.957010
vt 0.554733 0.962571
vt 0.500000 0.797163
vt 0.551392 0.967388
vt 0.547294 0.971443
vt 0.509268 0.992404
vt 0.495290 0.992776
vt 0.490732 0.991185
vt 0.452706 0.965225
vt 0.504710 0.993395
vt 0.500000 0.993516
vt 0.448608 0.960631
vt 0.445267 0.955375
vt 0.442485 0.949448
vt 0.528568 0.674613
vt 0.542021 0.681194
vt 0.554575 0.689780
vt 0.565997 0.700192
vt 0.576070 0.712156
vt 0.584575 0.725399
vt 0.591284 0.739929
vt 0.595966 0.755754
vt 0.598371 0.774845
vt 0.598245 0.799173
vt 0.592868 0.834126
vt 0.579517 0.885094
vt 0.420483 0.874639
vt 0.407132 0.821916
vt 0.401755 0.786256
vt 0.401629 0.761912
vt 0.404034 0.743136
vt 0.408716 0.727927
vt 0.415425 0.714279
vt 0.423930 0.702154
vt 0.434003 0.691515
vt 0.445425 0.682605
vt 0.457979 0.675669
vt 0.471432 0.670857
vt 0.485550 0.668322
vt 0.500000 0.668098
vt 0.514450 0.670222
vt 0.440063 0.942840
vt 0.559937 0.950721
vn 1.000000 0.000000 -0.000000
vn 1.000000 0.000000 -0.000000
vn 1.000000 0.000000 -0.000000
vn 1.000000 0.000000 -0.000000
vn 1.000000 0.000000 -0.000000
vn 1.000000 0.000000 -0.000000
vn 1.000000 0.000000 0.000000
vn 1.000000 0.000000 0.000000
vn 1.000000 0.000000 0.000000
vn 1.000000 0.000000 -0.000000
vn 1.000000 0.000000 0.000000
vn 1.000000 0.000000 0.000000
vn 1.000000 0.000000 0.000000
vn 1.000000 0.000000 0.000000
vn 1.000000 -0.000000 -0.000000
vn 1.000000 -0.000000 -0.000000
vn 1.000000 -0.000000 -0.000000
vn 1.000000 -0.000000 -0.000000
vn 1.000000 -0.000000 -0.000000
vn 1.000000 -0.000000 -0.000000
vn 1.000000 -0.000000 -0.000000
vn 1.000000 -0.000000 -0.000000
vn 1.000000 -0.000000 -0.000000
vn 1.000000 0.000000 -0.000000
vn 1.000000 0.000000 -0.000000
vn 1.000000 0.000000 -0.000000
vn 1.000000 0.000000 0.000000
vn 1.000000 0.000000 0.000000
vn 1.000000 0.000000 0.000000
vn 1.000000 -0.000000 0.000000
vn 1.000000 -0.000000 0.000000
vn 1.000000 -0.000000 0.000000
vn 1.000000 -0.000000 0.000000
vn 1.000000 -0.000000 0.000000
vn 1.000000 -0.000000 0.000000
vn 1.000000 -0.000000 0.000000
vn 1.000000 -0.000000 0.000000
vn 1.000000 -0.000000 0.000000
vn 1.000000 -0.000000 0.000000
vn 1.000000 -0.000000 0.000000
vn 1.000000 -0.000000 -0.000000
vn 1.000000 0.000000 0.000000
vn 1.000000 0.000000 -0.000000
s 1
g pCylinder1
f 15/1/1 33/2/2 16/3/3
f 14/4/4 16/3/3 33/2/2
f 14/4/4 34/5/5 16/3/3
f 16/3/3 34/5/5 37/6/6
f 17/7/7 35/8/8 16/3/3
f 16/3/3 35/8/8 39/9/9
f 18/10/10 36/11/11 16/3/3
f 17/7/7 16/3/3 36/11/11
f 18/10/10 16/3/3 37/6/6
f 20/12/12 38/13/13 16/3/3
f 19/14/14 16/3/3 38/13/13
f 20/12/12 16/3/3 39/9/9
f 1/15/15 40/16/16 16/3/3
f 2/17/17 16/3/3 40/16/16
f 2/17/17 41/18/18 16/3/3
f 3/19/19 16/3/3 41/18/18
f 3/19/19 42/20/20 16/3/3
f 4/21/21 16/3/3 42/20/20
f 4/21/21 43/22/22 16/3/3
f 5/23/23 16/3/3 43/22/22
f 5/23/23 21/24/24 16/3/3
f 6/25/25 16/3/3 21/24/24
f 16/3/3 6/25/25 22/26/26
f 16/3/3 23/27/27 7/28/28
f 7/28/28 24/29/29 16/3/3
f 8/30/30 16/3/3 24/29/29
f 8/30/30 25/31/31 16/3/3
f 9/32/32 16/3/3 25/31/31
f 9/32/32 26/33/33 16/3/3
f 10/34/34 16/3/3 26/33/33
f 10/34/34 27/35/35 16/3/3
f 11/36/36 16/3/3 27/35/35
f 11/36/36 28/37/37 16/3/3
f 12/38/38 16/3/3 28/37/37
f 12/38/38 29/39/39 16/3/3
f 13/40/40 16/3/3 29/39/39
f 13/40/40 30/41/41 16/3/3
f 1/15/15 16/3/3 30/41/41
f 19/14/14 31/42/42 16/3/3
f 16/3/3 31/42/42 23/27/27
f 22/26/26 32/43/43 16/3/3
f 15/1/1 16/3/3 32/43/43
